<svg xmlns="http://www.w3.org/2000/svg" width="1600" height="900" viewBox="0 0 1600 900"><defs><pattern id="grid" width="46" height="46" patternUnits="userSpaceOnUse"><path d="M46 0 L0 0 0 46" fill="none" stroke="#D8D0C0" stroke-width="1" opacity="0.38"/></pattern><marker id="arrow" viewBox="0 0 10 10" refX="8" refY="5" markerWidth="7" markerHeight="7" orient="auto"><path d="M0 0 L10 5 L0 10 z" fill="context-stroke"/></marker></defs><style>.ui{font-family:-apple-system,BlinkMacSystemFont,"Inter","Segoe UI",Arial,sans-serif;letter-spacing:0}.mono{font-family:"SFMono-Regular","SF Mono",Consolas,monospace;letter-spacing:0}</style><rect width="1600" height="900" fill="#F5F0E6"/><rect width="1600" height="900" fill="url(#grid)"/><rect x="42" y="42" width="1516" height="816" rx="8" fill="#FFFCF4" opacity="0.9"/><rect x="84" y="68" width="292" height="43" rx="8" fill="#F2FBF8" stroke="#2F7373" stroke-width="2"/><text class="mono" x="108" y="97" fill="#2F7373" font-size="16" font-weight="900" text-anchor="start">WEAK VERIFIER ENSEMBLE</text><rect x="1096" y="68" width="420" height="43" rx="8" fill="#FFFCF4" stroke="#D8D0C0" stroke-width="2"/><text class="mono" x="1306" y="97" fill="#5E6670" font-size="15" font-weight="780" text-anchor="middle">PART 3  51:51-57:36 + arXiv:2506.18203</text><text class="ui" x="86" y="188" fill="#171717" font-size="51" font-weight="920" text-anchor="start">Diversity Across Verifiers Helps</text><text class="ui" x="86" y="246" fill="#171717" font-size="51" font-weight="920" text-anchor="start">Only After Weighting and Filtering</text><text class="ui" x="90" y="324" fill="#5E6670" font-size="23" font-weight="560" text-anchor="start">Weaver normalizes heterogeneous scores, removes poor verifiers, and combines weighted</text><text class="ui" x="90" y="353" fill="#5E6670" font-size="23" font-weight="560" text-anchor="start">evidence.</text><rect x="75" y="415" width="220" height="56" rx="8" fill="#FFFCF4" stroke="#2563EB" stroke-width="2"/><text class="mono" x="185" y="451" fill="#2563EB" font-size="19" font-weight="850" text-anchor="middle">RM-A</text><path d="M295 443 L410 555" fill="none" stroke="#2563EB" stroke-width="3"  marker-end="url(#arrow)"/><rect x="75" y="491" width="220" height="56" rx="8" fill="#FFFCF4" stroke="#8B7355" stroke-width="2"/><text class="mono" x="185" y="527" fill="#8B7355" font-size="19" font-weight="850" text-anchor="middle">RM-B</text><path d="M295 519 L410 555" fill="none" stroke="#8B7355" stroke-width="3"  marker-end="url(#arrow)"/><rect x="75" y="567" width="220" height="56" rx="8" fill="#FFFCF4" stroke="#722F37" stroke-width="2"/><text class="mono" x="185" y="603" fill="#722F37" font-size="19" font-weight="850" text-anchor="middle">JUDGE-C</text><path d="M295 595 L410 555" fill="none" stroke="#722F37" stroke-width="3"  marker-end="url(#arrow)"/><rect x="75" y="643" width="220" height="56" rx="8" fill="#FFFCF4" stroke="#2F7373" stroke-width="2"/><text class="mono" x="185" y="679" fill="#2F7373" font-size="19" font-weight="850" text-anchor="middle">JUDGE-D</text><path d="M295 671 L410 555" fill="none" stroke="#2F7373" stroke-width="3"  marker-end="url(#arrow)"/><rect x="430" y="465" width="220" height="180" rx="8" fill="#FFFCF4" stroke="#2563EB" stroke-width="2"/><text class="mono" x="540" y="520" fill="#2563EB" font-size="19" font-weight="900" text-anchor="middle">NORMALIZE</text><text class="ui" x="540" y="575" fill="#171717" font-size="21" font-weight="700" text-anchor="middle">common scale</text><path d="M650 555 L700 555" fill="none" stroke="#2F7373" stroke-width="4"  marker-end="url(#arrow)"/><rect x="700" y="465" width="220" height="180" rx="8" fill="#FFFCF4" stroke="#B42318" stroke-width="2"/><text class="mono" x="810" y="520" fill="#B42318" font-size="19" font-weight="900" text-anchor="middle">FILTER</text><text class="ui" x="810" y="575" fill="#171717" font-size="21" font-weight="700" text-anchor="middle">drop poor</text><path d="M920 555 L970 555" fill="none" stroke="#2F7373" stroke-width="4"  marker-end="url(#arrow)"/><rect x="970" y="465" width="220" height="180" rx="8" fill="#FFFCF4" stroke="#8B7355" stroke-width="2"/><text class="mono" x="1080" y="520" fill="#8B7355" font-size="19" font-weight="900" text-anchor="middle">WEIGHT</text><text class="ui" x="1080" y="575" fill="#171717" font-size="21" font-weight="700" text-anchor="middle">estimate trust</text><path d="M1190 555 L1240 555" fill="none" stroke="#2F7373" stroke-width="4"  marker-end="url(#arrow)"/><rect x="1240" y="465" width="220" height="180" rx="8" fill="#F2FBF8" stroke="#2F7373" stroke-width="2"/><text class="mono" x="1350" y="520" fill="#2F7373" font-size="19" font-weight="900" text-anchor="middle">SELECT</text><text class="ui" x="1350" y="575" fill="#171717" font-size="21" font-weight="700" text-anchor="middle">one answer</text><rect x="390" y="735" width="820" height="96" rx="8" fill="#FFF5F3" stroke="#B42318" stroke-width="2"/><text class="mono" x="410" y="763" fill="#B42318" font-size="15" font-weight="900" text-anchor="start">CAVEAT</text><text class="ui" x="410" y="792" fill="#171717" font-size="20" font-weight="640" text-anchor="start">Adding more verifiers naively is not monotonically useful;</text><text class="ui" x="410" y="819" fill="#171717" font-size="20" font-weight="640" text-anchor="start">sources differ in quality and bias.</text></svg>