<svg xmlns="http://www.w3.org/2000/svg" width="1600" height="900" viewBox="0 0 1600 900"><defs>
    <pattern id="grid" width="46" height="46" patternUnits="userSpaceOnUse"><path d="M46 0 L0 0 0 46" fill="none" stroke="#D8D0C0" stroke-width="1" opacity="0.38"/></pattern>
    <marker id="arrow" viewBox="0 0 10 10" refX="8" refY="5" markerWidth="7" markerHeight="7" orient="auto"><path d="M0 0 L10 5 L0 10 z" fill="context-stroke"/></marker>
  </defs>
  <style>.ui{font-family:-apple-system,BlinkMacSystemFont,"Inter","Segoe UI",Arial,sans-serif;letter-spacing:0}.mono{font-family:"SFMono-Regular","SF Mono",Consolas,monospace;letter-spacing:0}</style>
  <rect width="1600" height="900" fill="#F5F0E6"/><rect width="1600" height="900" fill="url(#grid)"/><rect x="42" y="42" width="1516" height="816" rx="8" fill="#FFFCF4" opacity="0.88"/>
  <g><rect x="84" y="68" width="232" height="43" rx="8" fill="#F2FBF8" stroke="#2F7373" stroke-width="2"/><text class="mono" x="108" y="97" fill="#2F7373" font-size="18" font-weight="850" text-anchor="start">DECK DIAGNOSTIC</text></g><g><rect x="1236" y="68" width="280" height="43" rx="8" fill="#FFFCF4" stroke="#D8D0C0" stroke-width="2"/><text class="mono" x="1376" y="97" fill="#5E6670" font-size="17" font-weight="760" text-anchor="middle">LECTURE 1  47:09-58:04</text></g><text class="ui" x="86" y="188" fill="#171717" font-size="54" font-weight="900" text-anchor="start">A Useful Course Lens:</text><text class="ui" x="86" y="250" fill="#171717" font-size="54" font-weight="900" text-anchor="start">Feedback Quality</text><text class="ui" x="90" y="332" fill="#5E6670" font-size="25" font-weight="540" text-anchor="start">Use three questions before accepting any self-improving-agent claim.</text><rect x="30" y="390" width="440" height="200" rx="8" fill="#FFFCF4" stroke="#2563EB" stroke-width="2"/><text class="mono" x="250" y="448" fill="#2563EB" font-size="20" font-weight="900" text-anchor="middle">01</text><text class="ui" x="250" y="504" fill="#171717" font-size="28" font-weight="820" text-anchor="middle">What generates</text><text class="ui" x="250" y="539" fill="#171717" font-size="28" font-weight="820" text-anchor="middle">alternatives?</text><rect x="580" y="390" width="440" height="200" rx="8" fill="#FFFCF4" stroke="#722F37" stroke-width="2"/><text class="mono" x="800" y="448" fill="#722F37" font-size="20" font-weight="900" text-anchor="middle">02</text><text class="ui" x="800" y="504" fill="#171717" font-size="28" font-weight="820" text-anchor="middle">What verifies success?</text><rect x="1130" y="390" width="440" height="200" rx="8" fill="#FFFCF4" stroke="#2F7373" stroke-width="2"/><text class="mono" x="1350" y="448" fill="#2F7373" font-size="20" font-weight="900" text-anchor="middle">03</text><text class="ui" x="1350" y="504" fill="#171717" font-size="28" font-weight="820" text-anchor="middle">What persists after the</text><text class="ui" x="1350" y="539" fill="#171717" font-size="28" font-weight="820" text-anchor="middle">task?</text><path d="M470 490 L575 490" fill="none" stroke="#2F7373" stroke-width="4"  marker-end="url(#arrow)"/><path d="M1020 490 L1125 490" fill="none" stroke="#2F7373" stroke-width="4"  marker-end="url(#arrow)"/><rect x="525" y="690" width="550" height="76" rx="8" fill="#F3F7FF" stroke="#2563EB" stroke-width="2"/><text class="mono" x="800" y="738" fill="#2563EB" font-size="22" font-weight="900" text-anchor="middle">NEXT: test-time compute scaling</text><text class="ui" x="800" y="820" fill="#5E6670" font-size="21" font-weight="750" text-anchor="middle">External validation still matters.</text></svg>