<svg xmlns="http://www.w3.org/2000/svg" width="1600" height="900" viewBox="0 0 1600 900"><defs><pattern id="grid" width="46" height="46" patternUnits="userSpaceOnUse"><path d="M46 0 L0 0 0 46" fill="none" stroke="#D8D0C0" stroke-width="1" opacity="0.38"/></pattern><marker id="arrow" viewBox="0 0 10 10" refX="8" refY="5" markerWidth="7" markerHeight="7" orient="auto"><path d="M0 0 L10 5 L0 10 z" fill="context-stroke"/></marker></defs><style>.ui{font-family:-apple-system,BlinkMacSystemFont,"Inter","Segoe UI",Arial,sans-serif;letter-spacing:0}.mono{font-family:"SFMono-Regular","SF Mono",Consolas,monospace;letter-spacing:0}</style><rect width="1600" height="900" fill="#F5F0E6"/><rect width="1600" height="900" fill="url(#grid)"/><rect x="42" y="42" width="1516" height="816" rx="8" fill="#FFFCF4" opacity="0.92"/><rect x="84" y="68" width="234" height="43" rx="8" fill="#F2FBF8" stroke="#2F7373" stroke-width="2"/><text class="mono" x="108" y="97" fill="#2F7373" font-size="17" font-weight="900" text-anchor="start">METRIC BOUNDARY</text><rect x="1182.6" y="68" width="333.40000000000003" height="43" rx="8" fill="#FFFCF4" stroke="#D8D0C0" stroke-width="2"/><text class="mono" x="1349.3" y="97" fill="#5E6670" font-size="15" font-weight="760" text-anchor="middle">PART 7  09:40-16:35 + AlphaCode</text><text class="ui" x="86" y="188" fill="#171717" font-size="50" font-weight="920" text-anchor="start">Finding One Correct Program</text><text class="ui" x="86" y="245" fill="#171717" font-size="50" font-weight="920" text-anchor="start">Is Not the Same as Selecting Ten</text><text class="ui" x="90" y="320" fill="#5E6670" font-size="23" font-weight="560" text-anchor="start">pass@k measures candidate coverage; 10@k also measures small-set selection.</text><rect x="80" y="405" width="560" height="320" rx="8" fill="#F3F7FF" stroke="#2563EB" stroke-width="2"/><text class="mono" x="120" y="450" fill="#2563EB" font-size="18" font-weight="900" text-anchor="start">PASS@K  /  CORRECT EXISTS</text><circle cx="150" cy="465" r="20" fill="#D8D0C0"/><circle cx="212" cy="465" r="20" fill="#D8D0C0"/><circle cx="274" cy="465" r="20" fill="#D8D0C0"/><circle cx="336" cy="465" r="20" fill="#D8D0C0"/><circle cx="398" cy="465" r="20" fill="#D8D0C0"/><circle cx="460" cy="465" r="20" fill="#D8D0C0"/><circle cx="522" cy="465" r="20" fill="#D8D0C0"/><circle cx="150" cy="527" r="20" fill="#D8D0C0"/><circle cx="212" cy="527" r="20" fill="#D8D0C0"/><circle cx="274" cy="527" r="20" fill="#16803C"/><text class="mono" x="274" y="532" fill="#fff" font-size="11" font-weight="900" text-anchor="middle">OK</text><circle cx="336" cy="527" r="20" fill="#D8D0C0"/><circle cx="398" cy="527" r="20" fill="#D8D0C0"/><circle cx="460" cy="527" r="20" fill="#D8D0C0"/><circle cx="522" cy="527" r="20" fill="#D8D0C0"/><circle cx="150" cy="589" r="20" fill="#D8D0C0"/><circle cx="212" cy="589" r="20" fill="#D8D0C0"/><circle cx="274" cy="589" r="20" fill="#D8D0C0"/><circle cx="336" cy="589" r="20" fill="#D8D0C0"/><circle cx="398" cy="589" r="20" fill="#D8D0C0"/><circle cx="460" cy="589" r="20" fill="#D8D0C0"/><circle cx="522" cy="589" r="20" fill="#D8D0C0"/><circle cx="150" cy="651" r="20" fill="#D8D0C0"/><circle cx="212" cy="651" r="20" fill="#D8D0C0"/><circle cx="274" cy="651" r="20" fill="#D8D0C0"/><circle cx="336" cy="651" r="20" fill="#D8D0C0"/><circle cx="398" cy="651" r="20" fill="#D8D0C0"/><circle cx="460" cy="651" r="20" fill="#D8D0C0"/><circle cx="522" cy="651" r="20" fill="#D8D0C0"/><rect x="760" y="405" width="760" height="320" rx="8" fill="#FFFCF4" stroke="#722F37" stroke-width="2"/><text class="mono" x="800" y="450" fill="#722F37" font-size="18" font-weight="900" text-anchor="start">10@K  /  SELECT A SMALL SET</text><rect x="915" y="465" width="78" height="72" rx="8" fill="#FFFCF4" stroke="#722F37" stroke-width="2"/><text class="mono" x="954" y="508" fill="#722F37" font-size="16" font-weight="850" text-anchor="middle">1</text><rect x="1015" y="465" width="78" height="72" rx="8" fill="#FFFCF4" stroke="#722F37" stroke-width="2"/><text class="mono" x="1054" y="508" fill="#722F37" font-size="16" font-weight="850" text-anchor="middle">2</text><rect x="1115" y="465" width="78" height="72" rx="8" fill="#FFFCF4" stroke="#722F37" stroke-width="2"/><text class="mono" x="1154" y="508" fill="#722F37" font-size="16" font-weight="850" text-anchor="middle">3</text><rect x="1215" y="465" width="78" height="72" rx="8" fill="#FFFCF4" stroke="#722F37" stroke-width="2"/><text class="mono" x="1254" y="508" fill="#722F37" font-size="16" font-weight="850" text-anchor="middle">4</text><rect x="1315" y="465" width="78" height="72" rx="8" fill="#FFFCF4" stroke="#722F37" stroke-width="2"/><text class="mono" x="1354" y="508" fill="#722F37" font-size="16" font-weight="850" text-anchor="middle">5</text><rect x="915" y="565" width="78" height="72" rx="8" fill="#FFFCF4" stroke="#722F37" stroke-width="2"/><text class="mono" x="954" y="608" fill="#722F37" font-size="16" font-weight="850" text-anchor="middle">6</text><rect x="1015" y="565" width="78" height="72" rx="8" fill="#FFFCF4" stroke="#722F37" stroke-width="2"/><text class="mono" x="1054" y="608" fill="#722F37" font-size="16" font-weight="850" text-anchor="middle">7</text><rect x="1115" y="565" width="78" height="72" rx="8" fill="#FFF5F3" stroke="#B42318" stroke-width="2"/><text class="mono" x="1154" y="608" fill="#B42318" font-size="16" font-weight="850" text-anchor="middle">8</text><rect x="1215" y="565" width="78" height="72" rx="8" fill="#FFFCF4" stroke="#722F37" stroke-width="2"/><text class="mono" x="1254" y="608" fill="#722F37" font-size="16" font-weight="850" text-anchor="middle">9</text><rect x="1315" y="565" width="78" height="72" rx="8" fill="#FFFCF4" stroke="#722F37" stroke-width="2"/><text class="mono" x="1354" y="608" fill="#722F37" font-size="16" font-weight="850" text-anchor="middle">10</text><text class="ui" x="1280" y="690" fill="#B42318" font-size="18" font-weight="800" text-anchor="middle">correct candidate can be missed</text><rect x="340" y="765" width="920" height="90" rx="8" fill="#FFF5F3" stroke="#B42318" stroke-width="2"/><text class="mono" x="358" y="792" fill="#B42318" font-size="14" font-weight="900" text-anchor="start">BOUNDARY</text><text class="ui" x="358" y="819" fill="#171717" font-size="18" font-weight="630" text-anchor="start">Candidate coverage and returned reliability belong to different parts of the</text><text class="ui" x="358" y="844" fill="#171717" font-size="18" font-weight="630" text-anchor="start">system.</text></svg>