<svg xmlns="http://www.w3.org/2000/svg" width="1600" height="900" viewBox="0 0 1600 900">
  <defs>
    <pattern id="grid" width="46" height="46" patternUnits="userSpaceOnUse">
      <path d="M46 0 L0 0 0 46" fill="none" stroke="#D8D0C0" stroke-width="1" opacity="0.42"/>
    </pattern>
    <marker id="arrow" viewBox="0 0 10 10" refX="8" refY="5" markerWidth="7" markerHeight="7" orient="auto-start-reverse">
      <path d="M0 0 L10 5 L0 10 z" fill="#2F7373"/>
    </marker>
  </defs>
  <style>
    .ui { font-family: -apple-system, BlinkMacSystemFont, "Inter", "Segoe UI", Arial, sans-serif; letter-spacing: 0; }
    .mono { font-family: "SFMono-Regular", "SF Mono", Consolas, "Liberation Mono", Menlo, monospace; letter-spacing: 0; }
  </style>
  <rect width="1600" height="900" fill="#F5F0E6"/>
  <rect width="1600" height="900" fill="url(#grid)"/>
  <rect x="42" y="42" width="1516" height="816" rx="8" fill="#FFFCF4" opacity="0.82"/>
  <path d="M42 150 H1558" stroke="#D8D0C0" stroke-width="2"/>
  <g>
    <rect x="88" y="74" width="170" height="44" rx="8" fill="#2F7373" opacity="0.13" stroke="#2F7373" stroke-width="1.5"/>
    <text class="mono" x="110" y="103" fill="#2F7373" font-size="19" font-weight="850">GOVERNANCE</text>
  </g>
    <text class="ui" x="86" y="212" fill="#171717" font-size="58" font-weight="880" text-anchor="start">Classroom Agents Need</text><text class="ui" x="86" y="280" fill="#171717" font-size="58" font-weight="880" text-anchor="start">Boundaries Before Deployment</text>
    <text class="ui" x="90" y="372" fill="#5E6670" font-size="27" font-weight="520" text-anchor="start">Consent, audit, authority, and material protection must be</text><text class="ui" x="90" y="406" fill="#5E6670" font-size="27" font-weight="520" text-anchor="start">explicit.</text><g>
      <rect x="650" y="235" width="780" height="86" rx="8" fill="#FFFCF4" stroke="#2563EB" stroke-width="2"/>
      <rect x="682" y="260" width="34" height="34" rx="6" fill="#2563EB" opacity="0.13" stroke="#2563EB" stroke-width="2"/>
      <path d="M690 278 l9 10 l20 -24" fill="none" stroke="#2563EB" stroke-width="5" stroke-linecap="round"/>
      <text class="ui" x="742" y="291" fill="#171717" font-size="24" font-weight="680" text-anchor="start">Consent before recording or analyzing people</text>
    </g><g>
      <rect x="650" y="347" width="780" height="86" rx="8" fill="#FFFCF4" stroke="#2F7373" stroke-width="2"/>
      <rect x="682" y="372" width="34" height="34" rx="6" fill="#2F7373" opacity="0.13" stroke="#2F7373" stroke-width="2"/>
      <path d="M690 390 l9 10 l20 -24" fill="none" stroke="#2F7373" stroke-width="5" stroke-linecap="round"/>
      <text class="ui" x="742" y="403" fill="#171717" font-size="24" font-weight="680" text-anchor="start">Logs and audits for recommendations and actions</text>
    </g><g>
      <rect x="650" y="459" width="780" height="86" rx="8" fill="#FFFCF4" stroke="#722F37" stroke-width="2"/>
      <rect x="682" y="484" width="34" height="34" rx="6" fill="#722F37" opacity="0.13" stroke="#722F37" stroke-width="2"/>
      <path d="M690 502 l9 10 l20 -24" fill="none" stroke="#722F37" stroke-width="5" stroke-linecap="round"/>
      <text class="ui" x="742" y="515" fill="#171717" font-size="24" font-weight="680" text-anchor="start">Human authority for grading, discipline,</text><text class="ui" x="742" y="546" fill="#171717" font-size="24" font-weight="680" text-anchor="start">accommodations, appeals</text>
    </g><g>
      <rect x="650" y="571" width="780" height="86" rx="8" fill="#FFFCF4" stroke="#B42318" stroke-width="2"/>
      <rect x="682" y="596" width="34" height="34" rx="6" fill="#B42318" opacity="0.13" stroke="#B42318" stroke-width="2"/>
      <path d="M690 614 l9 10 l20 -24" fill="none" stroke="#B42318" stroke-width="5" stroke-linecap="round"/>
      <text class="ui" x="742" y="627" fill="#171717" font-size="24" font-weight="680" text-anchor="start">No unauthorized upload of course or peer</text><text class="ui" x="742" y="658" fill="#171717" font-size="24" font-weight="680" text-anchor="start">material</text>
    </g>
</svg>