<svg xmlns="http://www.w3.org/2000/svg" width="1600" height="900" viewBox="0 0 1600 900"><defs><pattern id="grid" width="46" height="46" patternUnits="userSpaceOnUse"><path d="M46 0 L0 0 0 46" fill="none" stroke="#D8D0C0" stroke-width="1" opacity="0.38"/></pattern><marker id="arrow" viewBox="0 0 10 10" refX="8" refY="5" markerWidth="7" markerHeight="7" orient="auto"><path d="M0 0 L10 5 L0 10 z" fill="context-stroke"/></marker></defs><style>.ui{font-family:-apple-system,BlinkMacSystemFont,"Inter","Segoe UI",Arial,sans-serif;letter-spacing:0}.mono{font-family:"SFMono-Regular","SF Mono",Consolas,monospace;letter-spacing:0}</style><rect width="1600" height="900" fill="#F5F0E6"/><rect width="1600" height="900" fill="url(#grid)"/><rect x="42" y="42" width="1516" height="816" rx="8" fill="#FFFCF4" opacity="0.92"/><rect x="84" y="68" width="246" height="43" rx="8" fill="#F2FBF8" stroke="#2F7373" stroke-width="2"/><text class="mono" x="108" y="97" fill="#2F7373" font-size="17" font-weight="900" text-anchor="start">EVIDENCE QUALITY</text><rect x="1135.6" y="68" width="380.40000000000003" height="43" rx="8" fill="#FFFCF4" stroke="#D8D0C0" stroke-width="2"/><text class="mono" x="1325.8" y="97" fill="#5E6670" font-size="15" font-weight="760" text-anchor="middle">PART 8  51:34-55:20 + DeepScholar v2</text><text class="ui" x="86" y="188" fill="#171717" font-size="50" font-weight="920" text-anchor="start">Research Synthesis Needs</text><text class="ui" x="86" y="245" fill="#171717" font-size="50" font-weight="920" text-anchor="start">Three Scores, Not One</text><text class="ui" x="90" y="320" fill="#5E6670" font-size="23" font-weight="560" text-anchor="start">Synthesis quality, retrieval coverage, and citation support expose different errors.</text><path d="M800 405 L460 720 L1140 720 Z" fill="#F3F7FF" stroke="#2563EB" stroke-width="4"/><rect x="670" y="390" width="260" height="100" rx="8" fill="#FFFCF4" stroke="#2563EB" stroke-width="2"/><text class="mono" x="800" y="432" fill="#2563EB" font-size="18" font-weight="900" text-anchor="middle">SYNTHESIS</text><text class="ui" x="800" y="466" fill="#171717" font-size="17" font-weight="700" text-anchor="middle">coherence</text><rect x="300" y="680" width="260" height="100" rx="8" fill="#FFFCF4" stroke="#2F7373" stroke-width="2"/><text class="mono" x="430" y="722" fill="#2F7373" font-size="18" font-weight="900" text-anchor="middle">RETRIEVAL</text><text class="ui" x="430" y="756" fill="#171717" font-size="17" font-weight="700" text-anchor="middle">coverage</text><rect x="1040" y="680" width="260" height="100" rx="8" fill="#FFFCF4" stroke="#722F37" stroke-width="2"/><text class="mono" x="1170" y="722" fill="#722F37" font-size="18" font-weight="900" text-anchor="middle">VERIFIABILITY</text><text class="ui" x="1170" y="756" fill="#171717" font-size="17" font-weight="700" text-anchor="middle">citation support</text><text class="ui" x="800" y="610" fill="#171717" font-size="20" font-weight="750" text-anchor="middle">A fluent report can</text><text class="ui" x="800" y="642" fill="#B42318" font-size="23" font-weight="900" text-anchor="middle">fail any one dimension.</text></svg>