<svg xmlns="http://www.w3.org/2000/svg" width="1600" height="900" viewBox="0 0 1600 900"><defs><pattern id="grid" width="46" height="46" patternUnits="userSpaceOnUse"><path d="M46 0 L0 0 0 46" fill="none" stroke="#D8D0C0" stroke-width="1" opacity="0.38"/></pattern><marker id="arrow" viewBox="0 0 10 10" refX="8" refY="5" markerWidth="7" markerHeight="7" orient="auto"><path d="M0 0 L10 5 L0 10 z" fill="context-stroke"/></marker></defs><style>.ui{font-family:-apple-system,BlinkMacSystemFont,"Inter","Segoe UI",Arial,sans-serif;letter-spacing:0}.mono{font-family:"SFMono-Regular","SF Mono",Consolas,monospace;letter-spacing:0}</style><rect width="1600" height="900" fill="#F5F0E6"/><rect width="1600" height="900" fill="url(#grid)"/><rect x="42" y="42" width="1516" height="816" rx="8" fill="#FFFCF4" opacity="0.92"/><rect x="84" y="68" width="246" height="43" rx="8" fill="#F2FBF8" stroke="#2F7373" stroke-width="2"/><text class="mono" x="108" y="97" fill="#2F7373" font-size="17" font-weight="900" text-anchor="start">DEPLOYMENT AUDIT</text><rect x="1163.8" y="68" width="352.2" height="43" rx="8" fill="#FFFCF4" stroke="#D8D0C0" stroke-width="2"/><text class="mono" x="1339.9" y="97" fill="#5E6670" font-size="15" font-weight="760" text-anchor="middle">PART 8  whole lecture / synthesis</text><text class="ui" x="86" y="188" fill="#171717" font-size="50" font-weight="920" text-anchor="start">Match Every Deployment Claim to</text><text class="ui" x="86" y="245" fill="#171717" font-size="50" font-weight="920" text-anchor="start">an Evaluation Portfolio</text><text class="ui" x="90" y="320" fill="#5E6670" font-size="23" font-weight="560" text-anchor="start">State distribution, threshold, context, evidence, version, and missing dimensions.</text><rect x="90" y="400" width="200" height="62" rx="8" fill="#FFFCF4" stroke="#2563EB" stroke-width="2"/><text class="mono" x="190" y="439" fill="#2563EB" font-size="14" font-weight="900" text-anchor="middle">CLAIM</text><rect x="330" y="400" width="200" height="62" rx="8" fill="#FFFCF4" stroke="#2F7373" stroke-width="2"/><text class="mono" x="430" y="439" fill="#2F7373" font-size="14" font-weight="900" text-anchor="middle">DISTRIBUTION</text><rect x="600" y="400" width="200" height="62" rx="8" fill="#FFFCF4" stroke="#8B7355" stroke-width="2"/><text class="mono" x="700" y="439" fill="#8B7355" font-size="14" font-weight="900" text-anchor="middle">THRESHOLD</text><rect x="850" y="400" width="200" height="62" rx="8" fill="#FFFCF4" stroke="#2F7373" stroke-width="2"/><text class="mono" x="950" y="439" fill="#2F7373" font-size="14" font-weight="900" text-anchor="middle">CONTEXT</text><rect x="1080" y="400" width="200" height="62" rx="8" fill="#FFFCF4" stroke="#722F37" stroke-width="2"/><text class="mono" x="1180" y="439" fill="#722F37" font-size="14" font-weight="900" text-anchor="middle">VERSION</text><rect x="1290" y="400" width="200" height="62" rx="8" fill="#FFF5F3" stroke="#B42318" stroke-width="2"/><text class="mono" x="1390" y="439" fill="#B42318" font-size="14" font-weight="900" text-anchor="middle">BLIND SPOT</text><rect x="90" y="480" width="200" height="72" rx="8" fill="#FFFCF4" stroke="#D8D0C0" stroke-width="2"/><text class="ui" x="190" y="523" fill="#171717" font-size="15" font-weight="760" text-anchor="middle">long tasks</text><rect x="330" y="480" width="200" height="72" rx="8" fill="#FFFCF4" stroke="#D8D0C0" stroke-width="2"/><text class="ui" x="430" y="523" fill="#171717" font-size="15" font-weight="760" text-anchor="middle">task set</text><rect x="600" y="480" width="200" height="72" rx="8" fill="#FFFCF4" stroke="#D8D0C0" stroke-width="2"/><text class="ui" x="700" y="523" fill="#171717" font-size="15" font-weight="760" text-anchor="middle">success target</text><rect x="850" y="480" width="200" height="72" rx="8" fill="#FFFCF4" stroke="#D8D0C0" stroke-width="2"/><text class="ui" x="950" y="523" fill="#171717" font-size="15" font-weight="760" text-anchor="middle">supplied info</text><rect x="1080" y="480" width="200" height="72" rx="8" fill="#FFFCF4" stroke="#D8D0C0" stroke-width="2"/><text class="ui" x="1180" y="523" fill="#171717" font-size="15" font-weight="760" text-anchor="middle">paper / date</text><rect x="1290" y="480" width="200" height="72" rx="8" fill="#FFF5F3" stroke="#B42318" stroke-width="2"/><text class="ui" x="1390" y="523" fill="#B42318" font-size="15" font-weight="760" text-anchor="middle">what is missing</text><rect x="90" y="572" width="200" height="72" rx="8" fill="#FFFCF4" stroke="#D8D0C0" stroke-width="2"/><text class="ui" x="190" y="615" fill="#171717" font-size="15" font-weight="760" text-anchor="middle">valuable work</text><rect x="330" y="572" width="200" height="72" rx="8" fill="#FFFCF4" stroke="#D8D0C0" stroke-width="2"/><text class="ui" x="430" y="615" fill="#171717" font-size="15" font-weight="760" text-anchor="middle">task set</text><rect x="600" y="572" width="200" height="72" rx="8" fill="#FFFCF4" stroke="#D8D0C0" stroke-width="2"/><text class="ui" x="700" y="615" fill="#171717" font-size="15" font-weight="760" text-anchor="middle">success target</text><rect x="850" y="572" width="200" height="72" rx="8" fill="#FFFCF4" stroke="#D8D0C0" stroke-width="2"/><text class="ui" x="950" y="615" fill="#171717" font-size="15" font-weight="760" text-anchor="middle">supplied info</text><rect x="1080" y="572" width="200" height="72" rx="8" fill="#FFFCF4" stroke="#D8D0C0" stroke-width="2"/><text class="ui" x="1180" y="615" fill="#171717" font-size="15" font-weight="760" text-anchor="middle">paper / date</text><rect x="1290" y="572" width="200" height="72" rx="8" fill="#FFF5F3" stroke="#B42318" stroke-width="2"/><text class="ui" x="1390" y="615" fill="#B42318" font-size="15" font-weight="760" text-anchor="middle">what is missing</text><rect x="90" y="664" width="200" height="72" rx="8" fill="#FFFCF4" stroke="#D8D0C0" stroke-width="2"/><text class="ui" x="190" y="707" fill="#171717" font-size="15" font-weight="760" text-anchor="middle">research synthesis</text><rect x="330" y="664" width="200" height="72" rx="8" fill="#FFFCF4" stroke="#D8D0C0" stroke-width="2"/><text class="ui" x="430" y="707" fill="#171717" font-size="15" font-weight="760" text-anchor="middle">task set</text><rect x="600" y="664" width="200" height="72" rx="8" fill="#FFFCF4" stroke="#D8D0C0" stroke-width="2"/><text class="ui" x="700" y="707" fill="#171717" font-size="15" font-weight="760" text-anchor="middle">success target</text><rect x="850" y="664" width="200" height="72" rx="8" fill="#FFFCF4" stroke="#D8D0C0" stroke-width="2"/><text class="ui" x="950" y="707" fill="#171717" font-size="15" font-weight="760" text-anchor="middle">supplied info</text><rect x="1080" y="664" width="200" height="72" rx="8" fill="#FFFCF4" stroke="#D8D0C0" stroke-width="2"/><text class="ui" x="1180" y="707" fill="#171717" font-size="15" font-weight="760" text-anchor="middle">paper / date</text><rect x="1290" y="664" width="200" height="72" rx="8" fill="#FFF5F3" stroke="#B42318" stroke-width="2"/><text class="ui" x="1390" y="707" fill="#B42318" font-size="15" font-weight="760" text-anchor="middle">what is missing</text><rect x="450" y="785" width="700" height="54" rx="8" fill="#F3F7FF" stroke="#2563EB" stroke-width="2"/><text class="mono" x="800" y="819" fill="#2563EB" font-size="18" font-weight="900" text-anchor="middle">CLAIM SCOPE &lt;= EVIDENCE SCOPE</text></svg>